<?xml version="1.0" standalone="no"?>
<!DOCTYPE svg PUBLIC "-//W3C//DTD SVG 20010904//EN"
 "http://www.w3.org/TR/2001/REC-SVG-20010904/DTD/svg10.dtd">
<svg version="1.0" xmlns="http://www.w3.org/2000/svg"
 width="300.000000pt" height="214.000000pt" viewBox="0 0 300.000000 214.000000"
 preserveAspectRatio="xMidYMid meet">
<metadata>
Created by potrace 1.10, written by Peter Selinger 2001-2011
</metadata>
<g transform="translate(0.000000,214.000000) scale(0.100000,-0.100000)"
fill="#000000" stroke="none">
<path d="M1265 1658 c-17 -44 -175 -565 -175 -575 0 -7 7 -13 15 -13 8 0 160
60 337 134 178 73 333 136 346 140 53 17 23 40 -242 184 -145 78 -266 142
-270 142 -4 0 -9 -6 -11 -12z m265 -152 c123 -68 226 -128 227 -133 2 -5 -27
-22 -64 -37 -37 -16 -77 -32 -88 -36 -74 -32 -179 -75 -230 -95 -33 -13 -98
-40 -145 -59 -94 -40 -100 -41 -100 -23 0 20 142 481 153 495 5 6 12 12 16 12
3 0 107 -56 231 -124z"/>
<path d="M1475 1660 c-4 -7 -1 -17 6 -24 22 -20 407 -226 422 -226 18 0 130
138 124 153 -3 7 -103 29 -248 55 -134 24 -256 46 -270 49 -15 3 -30 0 -34 -7z
m290 -66 c83 -14 165 -28 183 -31 17 -3 32 -11 32 -18 0 -15 -56 -87 -76 -98
-14 -8 -68 20 -281 140 -50 28 -61 42 -30 36 12 -2 90 -15 172 -29z"/>
<path d="M966 1313 c-88 -120 -159 -225 -160 -233 -1 -11 22 -19 94 -31 52 -8
98 -13 102 -10 13 11 149 464 144 477 -3 8 -9 14 -13 14 -5 0 -80 -98 -167
-217z m124 98 c0 -13 -46 -172 -77 -265 l-26 -79 -59 7 c-106 11 -115 -15 92
270 52 70 70 88 70 67z"/>
<path d="M2026 1446 c-37 -42 -66 -80 -64 -85 1 -5 75 -88 163 -184 143 -156
195 -201 195 -166 0 17 -201 482 -215 497 -9 10 -25 -2 -79 -62z m119 -86 c21
-47 47 -107 59 -135 39 -87 48 -114 44 -125 -5 -16 -248 246 -248 266 0 5 19
31 41 57 50 58 52 57 104 -63z"/>
<path d="M1485 1154 c-207 -85 -371 -159 -373 -166 -2 -8 126 -114 299 -249
328 -255 345 -267 355 -256 14 13 110 808 99 816 -5 4 -175 -60 -380 -145z
m351 34 c-7 -67 -31 -267 -41 -328 -2 -14 -7 -54 -11 -90 -4 -36 -8 -67 -9
-70 -1 -3 -5 -34 -9 -70 -10 -90 -15 -103 -35 -97 -16 4 -491 367 -543 415
-16 14 -28 29 -28 33 0 10 37 27 150 73 47 18 141 57 210 86 69 29 161 67 205
86 119 49 119 49 111 -38z"/>
<path d="M1944 1262 c-14 -9 -109 -761 -97 -773 9 -9 518 314 518 330 0 5 -78
94 -174 197 -235 255 -235 254 -247 246z m72 -94 c22 -24 99 -107 172 -186 72
-78 132 -148 132 -156 0 -12 -49 -46 -340 -234 -54 -35 -98 -58 -103 -53 -8 8
4 106 70 611 9 75 15 76 69 18z"/>
<path d="M790 988 c0 -7 41 -127 92 -265 74 -201 97 -253 111 -253 16 0 17 15
11 248 -4 136 -8 249 -10 251 -3 4 -167 30 -191 31 -7 0 -13 -6 -13 -12z m140
-34 c16 -3 32 -10 36 -15 10 -17 17 -359 7 -359 -8 0 -74 164 -130 324 -19 52
-11 69 27 62 16 -3 43 -9 60 -12z"/>
<path d="M1065 693 c9 -342 14 -403 33 -402 47 2 596 126 599 135 4 13 -600
484 -622 484 -13 0 -15 -26 -10 -217z m127 105 c45 -35 118 -91 162 -126 45
-34 113 -86 151 -116 39 -30 86 -68 105 -85 40 -36 34 -45 -34 -55 -40 -6
-101 -19 -336 -70 -90 -20 -117 -23 -127 -13 -17 17 -31 527 -14 527 6 0 48
-28 93 -62z"/>
<path d="M2040 525 c-122 -79 -204 -139 -202 -147 12 -51 67 -178 77 -176 9 2
210 249 347 424 5 7 3 16 -5 22 -9 8 -64 -23 -217 -123z m127 31 c-3 -8 -58
-80 -122 -161 -85 -107 -120 -144 -129 -136 -16 13 -49 108 -42 120 7 10 152
111 160 111 3 0 31 18 62 40 61 42 80 49 71 26z"/>
<path d="M1521 315 c-228 -48 -270 -62 -240 -80 20 -13 543 -75 552 -66 9 9
-49 188 -62 194 -3 2 -116 -20 -250 -48z m251 -18 c21 -44 31 -94 20 -101 -5
-3 -53 1 -108 9 -54 7 -124 16 -154 19 -143 16 -178 27 -122 40 120 27 311 65
328 65 13 1 25 -10 36 -32z"/>
</g>
</svg>
